<?xml version="1.0" encoding="utf-8"?>
<!-- Generator: Adobe Illustrator 18.1.0, SVG Export Plug-In . SVG Version: 6.00 Build 0)  -->
<svg version="1.1" id="Layer_1" xmlns="http://www.w3.org/2000/svg" xmlns:xlink="http://www.w3.org/1999/xlink" x="0px" y="0px"
	 viewBox="0 0 480 477.5" enable-background="new 0 0 480 477.5" xml:space="preserve">
<circle fill="#4D4D4D" cx="240" cy="238.7" r="211.2"/>
<g>
	<path fill="#FFFFFF" stroke="#666666" stroke-miterlimit="10" d="M480,210.4l-23.4-45.1l-7.9-50.2l-39.7-31.7l-27.6-42.7
		l-49.2-12.9L289.7,0l-50.2,8.3l-50.2-8l-42.5,27.9L97.8,41.2L70.4,84l-39.6,31.9l-7.6,50.3L0,211.4l13.5,49l-2.8,50.8l32.2,39.3
		L61.1,398l45.4,22.8l35.9,36l50.8,2.4l47.4,18.3l47.3-18.5l50.8-2.6l35.7-36.2l45.3-23l17.9-47.6l32.1-39.4l-3-50.7L480,210.4z
		 M240,450.1c-116.7,0-211.4-94.6-211.4-211.4S123.3,27.4,240,27.4c116.7,0,211.4,94.6,211.4,211.4S356.7,450.1,240,450.1z"/>
</g>
<circle fill="none" stroke="#FFFFFF" stroke-width="6" stroke-miterlimit="10" cx="240" cy="238.7" r="203.4"/>
<circle fill="#FFFFFF" cx="240" cy="238.7" r="194.5"/>
<g>
	<path fill="#eb6346" d="M176.5,283.4h-29v-65.3l-35-102.7h29.3l20.4,81.1h0.5l19.4-81.1h29.5l-35,102.7V283.4z"/>
	<path fill="#eb6346" d="M310.2,150.7v97c0,17.3-13.4,37.9-43.4,37.9c-33.1,0-44.9-20.6-44.9-37.9v-97c0-17.3,11.8-37.4,44.9-37.4
		C296.8,113.3,310.2,133.4,310.2,150.7z M280.2,151c0-5-4.8-14.2-13.4-14.2c-10.6,0-14.9,9.1-14.9,13.7v96.7
		c0,5.5,4.3,14.4,14.9,14.4c8.6,0,13.4-9.4,13.4-14.4V151z"/>
	<path fill="#eb6346" d="M362,115.4v119.3h-30V115.4H362z M332,253.4h30v30h-30V253.4z"/>
</g>
<g>
	<path fill="#eb6346" d="M152.7,311.4c0.3-0.1,0.5-0.2,0.8-0.2c0.3,0,0.4,0.1,0.6,0.3c0.1,0.2,0.2,0.4,0.2,0.6
		c0,0.3-0.1,0.7-0.4,1.1c-0.3,0.4-0.6,0.7-1.2,1.1c-1.3,0.9-2.6,1.7-3.9,2.5c-1.3,0.8-2.6,1.5-4,2.2c-1.1,0.6-2.3,1.2-3.6,1.8
		c-1.3,0.6-2.6,1.1-3.9,1.5c-1.3,0.4-2.6,0.8-4,1c-1.3,0.3-2.6,0.4-3.8,0.4c-1.1,0-2.1-0.1-3-0.4c-1-0.2-1.9-0.7-2.7-1.2
		c-1.4,2.2-2.9,4.2-4.6,6c-1.7,1.8-3.7,3.3-5.9,4.5c-2.2,1.3-4.7,2.2-7.5,2.9c-2.8,0.7-5.9,1-9.3,1c-2.5,0-4.7-0.3-6.6-1
		c-1.9-0.7-3.5-1.5-4.7-2.7c-1.3-1.1-2.2-2.5-2.8-4s-0.9-3.1-0.9-4.9c0-1.9,0.3-3.9,1-6c0.6-2.1,1.6-4.1,2.8-6.2
		c1.2-2.1,2.6-4.1,4.3-6c1.7-2,3.6-3.8,5.7-5.4c2.1-1.7,4.3-3.1,6.8-4.4c2.4-1.3,5-2.3,7.7-3c0.1-2.9,0.7-5.6,1.8-8.3
		c1.1-2.7,2.8-5.1,5-7.2c2.2-2.1,5.1-3.9,8.6-5.4c3.5-1.4,7.8-2.4,12.8-2.8c0,0,0,0,0.1,0c0,0,0.1,0,0.1,0c1,0,1.8,0.2,2.2,0.5
		c0.5,0.3,0.7,0.9,0.7,1.7c0,0.9-0.2,2.1-0.7,3.7s-1.1,3.5-1.9,6c-0.9,3-1.8,5.8-2.6,8.5c-0.8,2.7-1.6,5.4-2.4,8.1
		c0.9,0.8,1.7,1.8,2.4,2.8c0.8,1.1,1.4,2.3,2,3.6c0.6,1.3,1.1,2.8,1.5,4.5s0.6,3.5,0.8,5.4c0.1,0.2,0.1,0.4,0.1,0.6
		c0,0.3-0.1,0.5-0.2,0.7c-0.1,0.2-0.3,0.3-0.6,0.3c-0.3,0-0.5-0.1-0.5-0.3s-0.2-0.4-0.3-0.7c-1-1.9-2-3.8-3.1-5.8
		c-1.1-2-2.3-3.9-3.6-5.7c-1,3.2-2,6.2-3,9c-1.1,2.8-2.3,5.4-3.6,7.8c0.7,1.1,2,1.7,3.8,1.7c1,0,2.1-0.1,3.3-0.4
		c1.2-0.3,2.5-0.7,3.8-1.2c1.3-0.5,2.6-1,4-1.6s2.6-1.2,3.9-1.9c1.5-0.8,3-1.6,4.5-2.4C149.6,313.3,151.2,312.3,152.7,311.4z
		 M114.7,326.8c0.7-0.8,1.4-2,2.1-3.7c0.7-1.6,1.4-3.5,2.2-5.6c-1.4-1.5-2.7-3.2-3.8-5c-1.2-1.8-2.1-3.7-3-5.7s-1.5-4-1.9-6.1
		c-0.5-2.1-0.7-4.2-0.7-6.3c-2.3,0.7-4.5,1.6-6.7,2.8c-2.2,1.2-4.2,2.6-6.1,4.2s-3.7,3.3-5.3,5.1c-1.6,1.8-3,3.7-4.2,5.6
		s-2.1,3.8-2.7,5.7c-0.7,1.9-1,3.7-1,5.4c0,1.4,0.3,2.8,0.8,4.1c0.5,1.3,1.4,2.4,2.4,3.4c1.1,1,2.5,1.8,4.2,2.3
		c1.7,0.6,3.7,0.9,6,0.9c3.7,0,7-0.6,10-1.7C110.1,331,112.6,329.2,114.7,326.8z M120.2,314c1-2.6,1.9-5.4,2.9-8.3
		c1-2.9,2-5.8,3-8.9c-1.5-1.1-3-2-4.6-2.6c-1.6-0.7-3.3-1-5.2-1c-0.7,0-1.4,0-2,0.1c-0.7,0.1-1.3,0.1-1.9,0.3c0,0.3,0,0.5,0,0.8
		s0,0.5,0,0.8c0,3.2,0.6,6.4,1.8,9.6S117.4,311.1,120.2,314z M117.8,291.8c0.5,0,1,0,1.7,0.1c0.7,0,1.4,0.1,2.3,0.3
		c0.8,0.1,1.7,0.3,2.6,0.5c0.9,0.2,1.9,0.5,2.8,0.9c0.9-2.6,1.8-5.1,2.6-7.5c0.8-2.4,1.7-4.7,2.5-6.7s1.6-3.8,2.3-5.4
		s1.4-2.7,2.1-3.6c-3.3,0-6.3,0.6-9.1,1.8c-2.8,1.2-5.3,2.7-7.4,4.7c-2.1,2-3.9,4.3-5.2,6.9c-1.3,2.6-2.2,5.4-2.5,8.4
		c0.9-0.1,1.8-0.2,2.6-0.3S116.9,291.8,117.8,291.8z"/>
	<path fill="#eb6346" d="M229.3,311.4c0.3-0.1,0.5-0.2,0.7-0.2c0.3,0,0.6,0.1,0.9,0.2c0.3,0.2,0.4,0.4,0.4,0.7c0,0.3-0.3,0.8-1,1.3
		c-0.7,0.6-1.5,1.2-2.5,1.8c-1,0.6-2,1.3-3,1.9c-1,0.6-1.9,1.2-2.7,1.6c-1,0.7-2.1,1.5-3.4,2.4c-1.3,0.9-2.5,1.8-3.9,2.7
		c-1.3,0.9-2.6,1.6-3.9,2.2c-1.3,0.6-2.4,0.9-3.5,0.9c-0.9,0-1.7-0.3-2.4-1c-0.7-0.7-1-1.8-1-3.3c0-0.9,0.1-1.9,0.4-3.1
		s0.7-2.6,1.4-4.1c0.8-1.9,1.4-3.5,2-4.9c0.6-1.4,1-2.6,1.4-3.6c0.4-1,0.6-1.8,0.8-2.5c0.2-0.6,0.3-1.1,0.3-1.5
		c0-0.8-0.3-1.2-0.9-1.2c-0.6,0-1.4,0.4-2.4,1.1s-2.2,1.7-3.4,2.9c-1.3,1.2-2.6,2.6-4,4.1c-1.4,1.5-2.7,3.1-3.9,4.8
		c-1.3,1.6-2.4,3.3-3.4,4.9c-1,1.6-1.8,3.1-2.3,4.4c-0.1,0.2-0.3,0.5-0.5,0.7c-0.3,0.2-0.5,0.4-0.9,0.6c-0.3,0.2-0.7,0.3-1.1,0.4
		c-0.4,0.1-0.8,0.2-1.1,0.2c-0.6,0-1.2-0.2-1.6-0.5c-0.5-0.4-0.7-1-0.7-1.9c0-0.7,0.1-1.6,0.4-2.5c0.3-0.9,0.6-1.8,0.8-2.7
		c0.4-1.4,0.8-2.7,1.2-4.1c0.4-1.4,0.9-2.7,1.2-3.8c0.5-1.3,0.9-2.6,1.4-3.9c0.2-0.3,0.4-0.7,0.7-1.1c0.2-0.4,0.4-0.8,0.6-1.2
		c0.2-0.4,0.3-0.8,0.5-1.2c0.1-0.4,0.2-0.8,0.2-1.1c0-0.6-0.3-0.8-0.8-0.8c-1.1,0-2.3,0.4-3.7,1.1s-2.8,1.7-4.3,2.9
		c-1.5,1.2-2.9,2.6-4.4,4.1c-1.5,1.5-2.8,3.1-4,4.6c-1.2,1.5-2.3,3-3.2,4.4s-1.5,2.6-1.8,3.6c-0.2,0.6-0.4,1.1-0.6,1.6
		c-0.2,0.5-0.4,0.8-0.6,1.1s-0.5,0.5-0.8,0.7c-0.3,0.1-0.7,0.2-1.2,0.2c-1,0-1.6-0.3-1.9-0.8c-0.3-0.5-0.5-1.2-0.5-2.1
		c0-0.4,0.1-1,0.3-1.8c0.2-0.8,0.5-1.7,0.9-2.8c0.4-1,0.8-2.2,1.2-3.4c0.5-1.2,0.9-2.4,1.4-3.6c0.5-1.2,0.9-2.4,1.3-3.5
		c0.4-1.1,0.8-2.1,1.1-3l-16.5,9.7c-0.3,0.2-0.6,0.2-0.9,0.2s-0.5-0.1-0.7-0.2s-0.3-0.4-0.3-0.6c0-0.3,0.1-0.6,0.4-1
		c0.3-0.4,0.8-0.8,1.4-1.2l12.2-7.1c0.3-0.2,0.6-0.5,1-0.7s0.8-0.4,1.3-0.6c0.4-0.2,0.9-0.3,1.3-0.4c0.5-0.1,0.9-0.2,1.4-0.2
		c0.5,0,1,0.1,1.3,0.4c0.4,0.2,0.7,0.5,1,0.9c0.3,0.4,0.5,0.7,0.6,1.2c0.1,0.4,0.2,0.8,0.2,1.2c0,0.4,0,0.8-0.1,1.2
		c-0.1,0.4-0.2,0.9-0.3,1.5c-0.2,0.6-0.4,1.3-0.7,2.1c-0.3,0.8-0.7,1.9-1.2,3.2c0.8-1.1,1.6-2.2,2.5-3.3c0.9-1.2,1.8-2.3,2.8-3.4
		c1-1.1,2-2.2,3.1-3.2c1.1-1,2.3-1.9,3.5-2.6s2.5-1.4,3.9-1.8c1.4-0.4,2.8-0.7,4.4-0.7c0.5,0,0.9,0.1,1.3,0.3c0.4,0.2,0.8,0.6,1.2,1
		c0.4,0.5,0.6,1.1,0.9,1.8c0.2,0.7,0.3,1.6,0.3,2.5c0,1.1-0.2,2.4-0.5,3.8c-0.3,1.4-0.9,3.1-1.7,4.9c1.6-2.4,3.2-4.3,4.9-6
		s3.3-2.9,4.8-4c1.6-1,3-1.8,4.5-2.4c1.4-0.6,2.7-1,3.8-1.2c0.6,0,1.3,0.1,2,0.3c0.7,0.2,1.3,0.5,1.9,0.8c0.6,0.4,1,0.8,1.4,1.4
		c0.4,0.6,0.6,1.2,0.6,1.9c0,0.2,0,0.4,0,0.6c0,0.2-0.1,0.4-0.1,0.6c-0.3,0.9-0.6,2-1.1,3.1c-0.5,1.1-1,2.2-1.5,3.3
		s-1.1,2.2-1.7,3.3s-1.1,2.1-1.5,3.1c-0.5,1-0.8,1.8-1.1,2.6s-0.4,1.3-0.4,1.8c0,0.5,0.2,0.8,0.6,0.8c0.3,0,0.9-0.2,1.6-0.6
		c0.7-0.4,1.5-1,2.5-1.6c0.9-0.6,1.9-1.4,3-2.1c1.1-0.8,2.2-1.5,3.3-2.2L229.3,311.4z"/>
	<path fill="#eb6346" d="M229.2,314.2c-0.2,0.1-0.3,0.1-0.4,0.1c-0.2,0-0.4-0.1-0.5-0.3s-0.2-0.4-0.2-0.7c0-0.3,0.1-0.7,0.2-1
		s0.5-0.7,0.9-0.9l12.7-7.4c1.6-0.9,3.3-1.7,5.1-2.4c1.8-0.7,3.6-1.2,5.5-1.6s3.7-0.7,5.5-0.9s3.5-0.3,5.2-0.3
		c0.9,0,1.8,0.1,2.6,0.2c0.8,0.1,1.5,0.3,2.1,0.5s1,0.5,1.4,0.8c0.3,0.3,0.5,0.7,0.5,1.1c0,0.3-0.1,0.5-0.3,0.7
		c-0.2,0.1-0.5,0.2-0.8,0.3c-0.3,0.1-0.6,0.1-1,0.1c-0.3,0-0.6,0.1-0.8,0.2c-0.1,0.6-0.4,1.3-0.6,2.2s-0.6,1.8-0.9,2.8
		s-0.6,1.8-0.8,2.5c-0.2,0.7-0.4,1.2-0.4,1.3c-0.3,0.9-0.7,2.1-1.2,3.6c-0.5,1.5-1,3.4-1.7,5.9c0,0,0.3-0.1,0.8-0.4
		c0.5-0.3,1.1-0.6,1.9-1.1c0.8-0.4,1.7-0.9,2.7-1.5c1-0.6,2-1.2,3.1-1.8l8.2-4.9c0.3-0.2,0.6-0.3,0.8-0.3c0.2,0,0.4,0.1,0.6,0.3
		s0.2,0.4,0.2,0.6c0,0.3-0.1,0.7-0.4,1.1c-0.3,0.4-0.7,0.8-1.2,1.1l-18.2,10.7c-0.5,0.3-0.9,0.5-1.3,0.6c-0.4,0.1-0.8,0.2-1.1,0.2
		c-0.5,0-0.9-0.1-1.2-0.3c-0.3-0.2-0.6-0.5-0.8-0.8c-0.2-0.4-0.4-0.8-0.5-1.2s-0.2-0.9-0.2-1.5c0-0.6,0.1-1.2,0.2-1.7
		s0.3-1.1,0.5-1.7c-0.7,1.3-1.4,2.4-2.3,3.4c-0.9,1-1.8,1.8-2.8,2.4s-2,1.1-3.1,1.4s-2.1,0.5-3.1,0.5s-2-0.2-2.9-0.5
		c-0.9-0.3-1.7-0.8-2.4-1.4c-0.7-0.6-1.2-1.4-1.6-2.3c-0.4-0.9-0.6-2-0.6-3.2c0-0.7,0.1-1.6,0.2-2.5c0.1-0.9,0.3-1.8,0.6-2.7
		s0.5-1.8,0.8-2.7c0.3-0.9,0.6-1.7,1-2.4L229.2,314.2z M260.4,301.5c-1.8,0-3.6,0.3-5.3,0.9c-1.7,0.6-3.2,1.4-4.7,2.5
		s-2.7,2.2-3.9,3.5c-1.2,1.3-2.1,2.6-3,4c-0.8,1.4-1.4,2.7-1.9,4.1c-0.4,1.3-0.7,2.5-0.7,3.6c0,1.2,0.3,2.1,0.8,2.9
		c0.5,0.7,1.4,1.1,2.5,1.1c0.7,0,1.4-0.2,2.3-0.6c0.8-0.4,1.6-1,2.5-1.7c0.8-0.7,1.7-1.5,2.5-2.4c0.8-0.9,1.6-1.8,2.3-2.7
		c0.7-0.9,1.3-1.8,1.8-2.7c0.5-0.9,0.9-1.6,1.1-2.3L260.4,301.5z"/>
	<path fill="#eb6346" d="M330.3,311.4c0.2-0.1,0.4-0.1,0.6-0.1c0.3,0,0.5,0.1,0.7,0.3c0.2,0.2,0.3,0.4,0.3,0.7c0,0.3-0.1,0.6-0.4,1
		c-0.3,0.3-0.7,0.7-1.3,1.1c-1.1,0.7-2.4,1.4-3.8,2.3s-3,1.8-4.7,2.8c-1.7,1-3.4,2.1-5.3,3.2c-1.9,1.1-3.8,2.3-5.7,3.5
		c-1.7,2.7-3.5,5.3-5.4,8c-1.9,2.6-3.9,5.2-5.9,7.6c-2,2.4-4.1,4.6-6.1,6.7c-2,2.1-4,3.9-5.8,5.4c-1.9,1.5-3.6,2.7-5.2,3.6
		c-1.6,0.9-3,1.3-4.2,1.3c-0.9,0-1.7-0.1-2.4-0.2c-0.7-0.2-1.3-0.4-1.8-0.8c-0.5-0.4-0.8-0.9-1.1-1.5c-0.2-0.6-0.4-1.5-0.4-2.4
		c0-0.6,0.4-1.3,1.1-2.3c0.7-0.9,1.7-2,3-3.2c1.3-1.2,2.8-2.5,4.6-3.9c1.8-1.4,3.7-2.9,5.8-4.5c2.1-1.6,4.3-3.2,6.7-4.8
		c2.4-1.7,4.8-3.3,7.2-5c2.5-3.1,5.4-6.6,8.6-10.5c-0.9,0.8-1.8,1.5-2.8,2.3s-2.1,1.3-3.2,1.9c-1.1,0.5-2.2,1-3.2,1.3
		s-2.1,0.5-3,0.5c-1.2,0-2.4-0.1-3.4-0.4c-1-0.2-1.9-0.7-2.7-1.2c-0.8-0.6-1.3-1.3-1.8-2.2s-0.6-2-0.6-3.2c0-1.3,0.2-2.5,0.6-3.7
		c0.4-1.2,0.9-2.3,1.5-3.4c0.6-1.1,1.4-2.1,2.2-3c0.8-0.9,1.6-1.8,2.5-2.6c0.8-0.9,1.7-1.8,2.7-2.6s2-1.6,3.1-2.3l-23.3,13.7
		c-0.4,0.2-0.7,0.3-1,0.3c-0.6,0-0.9-0.3-0.9-0.9c0-0.3,0.1-0.7,0.4-1.1c0.3-0.4,0.7-0.8,1.4-1.2c3.9-2.4,7.6-4.5,11-6.3
		c3.4-1.8,6.6-3.4,9.5-4.6c2.9-1.2,5.5-2.2,7.9-2.8s4.5-1,6.3-1c2.4,0,4.3,0.6,5.6,1.8c1.3,1.2,1.9,3.1,1.9,5.7
		c0,1.1-0.2,2.3-0.5,3.6c-0.3,1.3-0.7,2.7-1.3,4.1c-0.6,1.5-1.2,3-2,4.6c-0.8,1.6-1.7,3.2-2.6,4.9c3.3-2.1,6.4-3.9,9.2-5.6
		S328.1,312.7,330.3,311.4z M278.2,355.4c0.6,0,1.4-0.4,2.5-1.3c1-0.9,2.4-2.2,4-3.9c1.6-1.7,3.5-3.9,5.7-6.4c2.2-2.6,4.8-5.6,7.7-9
		c-1.5,1.1-3.1,2.2-4.7,3.4s-3.3,2.4-5,3.6s-3.2,2.3-4.7,3.5c-1.5,1.1-2.8,2.2-4,3.2s-2.1,1.9-2.7,2.7c-0.7,0.8-1,1.4-1,1.9
		c0,0.2,0,0.4,0.1,0.7c0.1,0.3,0.2,0.5,0.4,0.8c0.2,0.2,0.4,0.4,0.7,0.6S277.8,355.4,278.2,355.4z M295.4,318.4
		c0,1.9,0.2,3.3,0.7,4.1c0.5,0.8,1.3,1.2,2.5,1.2c0.8,0,1.8-0.2,2.7-0.6c1-0.4,2-0.9,3-1.6c1-0.6,2-1.4,2.9-2.2s1.8-1.6,2.6-2.4
		c0.8-0.8,1.5-1.5,2-2.1c0.6-0.7,0.9-1.2,1.2-1.6c0.5-0.8,1-1.5,1.3-2.2c0.3-0.6,0.6-1.3,0.8-1.9s0.3-1.3,0.4-2.1
		c0.1-0.7,0.1-1.6,0.1-2.6c0-0.3-0.1-0.7-0.3-1.1c-0.2-0.4-0.5-0.7-0.8-1.1c-0.3-0.3-0.6-0.6-1-0.8c-0.4-0.2-0.7-0.3-0.9-0.3
		c-2.7,0-5.1,0.5-7.1,1.4c-2.1,0.9-3.8,2.2-5.3,3.8c-1.5,1.6-2.6,3.4-3.4,5.5S295.5,316.2,295.4,318.4z"/>
	<path fill="#eb6346" d="M330.1,314.4c-0.2,0.2-0.5,0.2-0.8,0.2s-0.5-0.1-0.7-0.3c-0.2-0.2-0.3-0.4-0.3-0.7c0-0.3,0.1-0.6,0.4-1
		c0.3-0.4,0.7-0.8,1.4-1.2l8.6-5.1c0.6-1.8,1.4-3.4,2.5-4.7c1-1.3,2.1-2.4,3.3-3.3c1.2-0.9,2.5-1.5,3.8-1.9c1.3-0.4,2.6-0.6,3.8-0.6
		c1.3,0,2.3,0.3,3.2,1s1.2,1.7,1.2,3.1c0,0.9-0.3,1.8-0.9,2.7c-0.6,1-1.5,1.9-2.6,2.8s-2.4,1.8-3.8,2.6c-1.5,0.8-3,1.5-4.7,2
		c0,1.1,0,2.2-0.1,3.1c0,1-0.1,1.9-0.1,2.8c0,0.7,0,1.4,0.1,2s0.1,1.1,0.3,1.6c0.1,0.4,0.4,0.8,0.6,1s0.6,0.4,1,0.4
		c0.6,0,1.4-0.3,2.3-0.8c0.9-0.5,2.1-1.2,3.4-2c1.2-0.7,2.8-1.7,4.8-2.8c1.9-1.1,4.3-2.5,7.1-4.1c0.1-0.1,0.2-0.1,0.4-0.1
		c0.3,0,0.5,0.1,0.7,0.3c0.2,0.2,0.3,0.5,0.3,0.8c0,0.3-0.1,0.6-0.3,0.9c-0.2,0.3-0.5,0.6-1,0.9c-2.3,1.3-4.4,2.7-6.6,4.1
		c-2.1,1.4-4.1,2.6-6,3.8c-1.9,1.1-3.6,2.1-5.2,2.8c-1.6,0.7-3,1.1-4.2,1.1c-0.8,0-1.5-0.2-2.1-0.5s-1.1-0.9-1.5-1.6
		c-0.4-0.7-0.7-1.7-1-2.9c-0.2-1.2-0.3-2.7-0.3-4.4c0-0.3,0-0.7,0-1.3s0.1-1.3,0.2-2s0.2-1.4,0.3-2.1c0.1-0.7,0.2-1.2,0.4-1.6
		c-0.2,0.1-0.4,0.2-0.7,0.4c-0.3,0.2-0.7,0.4-1.1,0.6c-0.4,0.2-0.8,0.5-1.3,0.8c-0.5,0.3-0.9,0.6-1.4,0.8L330.1,314.4z M352.9,300.3
		c0-0.1,0.1-0.3,0.1-0.4c0-0.6-0.1-1-0.3-1.3c-0.2-0.3-0.5-0.4-1-0.4c-0.5,0-1.1,0.2-1.8,0.6s-1.4,1-2,1.8c-0.7,0.8-1.2,1.8-1.8,2.9
		s-0.9,2.5-1,4c0.9-0.5,1.9-1,2.7-1.7c0.9-0.6,1.7-1.3,2.4-1.9s1.3-1.3,1.8-1.9C352.5,301.3,352.8,300.7,352.9,300.3z"/>
	<path fill="#eb6346" d="M387.1,303.7c0,1,0.1,1.7,0.2,2.1c0.1,0.5,0.3,0.9,0.5,1.2c0.2,0.4,0.3,0.7,0.5,1.2s0.2,1.1,0.2,2
		c0,0.6-0.1,1.3-0.2,2.1c-0.1,0.8-0.4,1.5-0.7,2.4c-0.3,0.8-0.8,1.6-1.4,2.4c-0.6,0.8-1.4,1.5-2.4,2.1l13.4-7.7
		c0.2-0.1,0.3-0.1,0.5-0.1c0.2,0,0.5,0.1,0.7,0.3c0.2,0.2,0.3,0.5,0.3,0.8c0,0.3-0.1,0.6-0.3,0.9c-0.2,0.4-0.6,0.7-1.1,1
		c-2.8,1.6-5.2,3-7.2,4.2c-2,1.2-3.7,2.2-5.2,3c-1.4,0.8-2.6,1.5-3.5,2.1c-0.9,0.6-1.7,1-2.3,1.4c-1.1,0.7-2.1,1.1-3.1,1.3
		c-1,0.2-1.9,0.3-2.9,0.3c-0.7,0-1.3-0.1-1.6-0.4c-0.3-0.3-0.5-0.5-0.5-0.8c0-0.3,0.2-0.6,0.5-0.9s0.8-0.4,1.5-0.4
		c1.1,0,2.2-0.4,3.2-1.1c1-0.8,2-1.8,2.8-3.1s1.5-2.8,1.9-4.6c0.5-1.8,0.7-3.6,0.7-5.6c0-0.3,0.1-0.9,0.2-1.7
		c0.1-0.8,0.3-1.8,0.6-2.7c0.3-1,0.6-1.9,1.1-2.9c0.4-0.9,1-1.6,1.6-2.1l-21,14c-0.2,0.2-0.5,0.2-0.7,0.2c-0.2,0-0.5-0.1-0.6-0.3
		c-0.2-0.2-0.2-0.4-0.2-0.7c0-0.3,0.1-0.7,0.4-1.1c0.2-0.4,0.6-0.7,1.2-1.1c3.7-2.5,6.8-4.6,9.2-6.2c2.5-1.7,4.5-3,6.1-4l4.8-3.2
		c0.7-0.3,1.4-0.5,2.2-0.7c0.8-0.2,1.5-0.3,2.2-0.3c0.7,0,1.3,0.1,1.8,0.4c0.5,0.2,0.7,0.6,0.7,1.1c0,0.2-0.2,0.5-0.6,0.9
		s-0.9,0.9-1.4,1.4c-0.5,0.5-1,1-1.4,1.6C387.3,302.8,387.1,303.3,387.1,303.7z"/>
</g>
</svg>
